<?xml version="1.0" standalone="no"?>
<!DOCTYPE svg PUBLIC "-//W3C//DTD SVG 20010904//EN"
 "http://www.w3.org/TR/2001/REC-SVG-20010904/DTD/svg10.dtd">
<svg version="1.0" xmlns="http://www.w3.org/2000/svg"
 width="538.000000pt" height="538.000000pt" viewBox="0 0 538.000000 538.000000"
 preserveAspectRatio="xMidYMid meet">
<metadata>
Created by potrace 1.11, written by Peter Selinger 2001-2013
</metadata>
<g transform="translate(0.000000,538.000000) scale(0.100000,-0.100000)"
fill="#000000" stroke="none">
<path d="M2590 5333 c-14 -2 -50 -11 -80 -20 -30 -8 -59 -16 -65 -17 -5 -1
-31 -12 -58 -24 -29 -13 -77 -23 -124 -26 -180 -12 -348 -67 -492 -161 -20
-13 -67 -36 -106 -51 -88 -34 -163 -83 -212 -138 -21 -24 -53 -50 -70 -59 -66
-35 -161 -137 -155 -168 2 -10 -37 2 -44 12 -3 5 -40 9 -82 9 -67 0 -84 -4
-129 -30 -28 -16 -58 -38 -65 -47 -7 -10 -42 -43 -78 -73 -70 -59 -94 -85
-161 -170 -23 -30 -49 -59 -56 -63 -7 -4 -13 -15 -13 -22 0 -8 -4 -15 -9 -15
-10 0 -104 -190 -97 -197 7 -8 -22 -95 -49 -146 -13 -26 -24 -48 -24 -50 3 -8
-37 -128 -52 -159 -11 -21 -17 -38 -13 -38 4 0 1 -7 -6 -15 -7 -8 -9 -15 -5
-15 4 0 3 -6 -2 -12 -9 -11 -19 -40 -28 -83 -2 -5 -9 -30 -16 -55 -7 -25 -13
-47 -14 -50 -13 -60 -29 -118 -35 -130 -5 -8 -10 -28 -13 -45 -3 -16 -10 -42
-16 -57 -6 -16 -8 -28 -6 -28 2 0 1 -10 -4 -22 -5 -13 -12 -48 -15 -79 -4 -31
-9 -67 -11 -80 -7 -37 -7 -207 0 -279 9 -87 42 -223 70 -285 29 -66 77 -112
126 -120 30 -5 43 -14 55 -37 15 -28 14 -31 -9 -52 -82 -76 -91 -196 -31 -404
42 -144 104 -250 208 -358 50 -51 99 -104 108 -117 22 -31 71 -54 132 -62 45
-5 59 -11 91 -39 8 -6 5 -25 -7 -61 -14 -41 -15 -59 -6 -93 11 -44 57 -101 95
-118 l21 -9 -24 -75 c-14 -41 -27 -82 -29 -90 -14 -53 -26 -84 -35 -95 -6 -8
-14 -38 -17 -67 -3 -29 -7 -55 -9 -57 -4 -4 31 -70 48 -91 25 -31 86 -51 131
-45 48 7 81 26 117 67 l25 28 26 -24 c46 -43 108 -65 159 -57 25 4 51 11 58
15 13 8 6 -45 -10 -76 -5 -10 -7 -18 -4 -18 3 0 -2 -16 -10 -35 -8 -19 -11
-35 -8 -35 4 0 1 -7 -6 -15 -7 -8 -9 -15 -5 -15 4 0 3 -6 -3 -12 -22 -27 -24
-96 -4 -140 18 -39 72 -102 72 -84 0 5 6 3 14 -3 21 -17 86 -17 126 1 47 21
96 82 103 128 2 8 6 21 10 27 5 7 6 13 2 13 -3 0 -1 8 4 18 6 11 12 30 15 43
25 122 80 287 101 301 6 5 6 8 0 8 -6 0 -6 3 0 8 6 4 49 59 97 122 76 101 228
267 284 310 11 8 67 51 124 94 58 44 110 85 115 92 6 6 39 31 75 54 89 59 166
141 209 222 10 18 32 59 49 90 17 32 35 73 38 90 8 37 10 158 3 202 -5 34 -14
32 151 37 l95 3 3 -54 c4 -68 54 -244 93 -326 20 -44 46 -77 90 -115 72 -63
88 -76 126 -106 15 -12 37 -30 48 -40 25 -23 101 -63 120 -63 8 0 15 -4 15
-10 0 -5 11 -12 25 -16 14 -3 25 -10 25 -15 0 -5 5 -9 11 -9 19 0 64 -55 144
-175 22 -33 54 -77 71 -98 56 -67 177 -379 189 -488 13 -111 47 -168 114 -190
117 -39 225 47 215 171 -5 66 -14 133 -20 152 -3 11 6 30 25 50 17 18 31 38
31 44 0 6 6 17 14 23 11 9 19 4 40 -24 25 -33 94 -84 120 -90 6 -1 28 -5 49
-10 24 -5 48 -3 70 6 39 15 88 54 80 63 -4 3 -1 6 5 6 13 0 27 62 24 103 -1
16 -8 40 -16 55 -15 30 -60 72 -76 72 -6 0 -10 4 -10 9 0 8 -69 139 -131 247
l-23 42 33 28 c42 35 70 95 65 140 -4 41 -32 104 -51 111 -20 8 -16 19 18 56
27 30 85 147 72 147 -3 0 -1 6 4 13 6 6 11 19 11 27 5 69 10 90 22 105 8 9 15
22 16 29 10 46 15 60 21 65 9 7 61 81 79 115 32 56 115 228 119 243 2 10 9 32
15 48 6 17 13 37 16 45 2 8 15 53 29 100 14 47 27 99 29 115 3 17 7 46 11 65
3 20 12 83 19 140 8 58 19 106 25 108 14 5 38 49 47 88 13 59 13 270 -1 354
-20 119 -109 437 -143 512 -29 63 -116 168 -140 168 -6 0 -12 4 -12 9 0 5 -16
26 -36 46 -19 20 -49 67 -67 103 -38 82 -123 200 -168 233 -53 39 -148 139
-184 194 -40 59 -143 168 -200 210 -22 17 -48 37 -58 46 -9 9 -30 22 -45 29
-15 8 -34 19 -42 26 -8 6 -46 28 -85 49 -38 20 -76 42 -82 47 -7 6 -13 7 -13
2 0 -5 -4 -4 -8 2 -4 6 -34 24 -67 39 -33 16 -71 36 -85 46 -14 9 -59 31 -100
49 -41 18 -106 46 -145 62 -38 17 -74 31 -80 32 -5 2 -27 10 -49 19 -21 9 -40
17 -41 17 -1 0 -18 6 -36 14 -19 8 -37 13 -40 13 -3 -1 -12 3 -20 10 -23 19
-95 36 -246 59 -21 3 -49 7 -63 10 -117 21 -284 29 -350 17z m-919 -1216 c57
-24 113 -47 124 -52 11 -4 23 -7 28 -7 4 1 7 -3 7 -8 0 -5 5 -10 12 -10 6 0
30 -9 52 -19 62 -30 163 -50 230 -45 42 2 69 -1 90 -13 70 -36 111 -57 116
-58 3 -1 19 -7 35 -14 93 -39 163 -26 219 39 25 31 27 31 64 19 20 -7 40 -12
44 -11 3 1 12 -5 18 -13 7 -8 19 -15 26 -15 8 0 14 -3 14 -8 0 -7 52 -33 80
-40 70 -15 150 21 178 80 16 34 42 52 42 28 0 -5 5 -10 11 -10 6 0 16 -6 23
-12 116 -111 146 -138 155 -138 6 0 11 -4 11 -9 0 -9 13 -15 60 -29 8 -3 36
-5 62 -5 55 -1 104 28 134 80 l20 34 24 -20 c14 -11 30 -25 37 -31 7 -5 17
-10 23 -10 5 0 10 -4 10 -9 0 -5 8 -11 18 -15 9 -3 32 -15 50 -26 17 -11 32
-17 32 -14 0 4 6 2 13 -3 45 -34 187 17 187 67 0 15 8 13 95 -29 126 -61 164
-67 222 -38 38 20 83 72 83 97 0 17 2 17 30 4 16 -8 44 -34 62 -57 18 -23 35
-44 38 -47 20 -17 70 -114 70 -135 0 -14 3 -25 8 -25 4 0 7 -24 8 -53 0 -28 4
-77 8 -107 7 -56 19 -217 17 -235 -8 -95 -12 -117 -21 -134 -5 -11 -11 -31
-12 -45 -1 -15 -6 -26 -9 -26 -4 0 -19 -24 -33 -52 -14 -29 -36 -65 -49 -81
-14 -15 -30 -42 -37 -60 -44 -116 -117 -192 -258 -267 -57 -30 -113 -61 -125
-67 -18 -10 -23 -10 -25 3 -2 8 -16 17 -32 20 -17 4 -27 12 -26 22 0 10 -6 18
-14 18 -8 1 -18 2 -22 3 -5 0 -11 1 -15 2 -5 0 -14 11 -21 25 -7 13 -17 22
-23 18 -5 -3 -17 0 -26 8 -9 7 -14 8 -11 3 4 -6 -15 -10 -48 -11 -29 -1 -60
-7 -69 -14 -8 -7 -15 -9 -15 -4 0 4 -7 -1 -16 -12 -8 -10 -13 -12 -9 -4 4 8
-4 2 -16 -14 l-22 -28 -18 23 c-15 20 -19 21 -33 10 -21 -18 -20 -37 4 -61 11
-11 20 -18 20 -15 0 3 9 1 20 -5 11 -6 18 -15 16 -19 -3 -5 3 -16 13 -25 20
-18 65 -31 56 -15 -4 5 -11 7 -16 4 -5 -3 -6 1 -3 9 5 12 8 12 23 -2 10 -9 15
-21 12 -27 -3 -5 6 -3 19 6 23 15 35 55 18 65 -4 3 -8 -1 -8 -8 0 -9 -3 -9
-10 2 -5 8 -10 11 -10 6 0 -5 -7 -3 -15 4 -8 7 -12 17 -8 23 4 6 0 8 -8 5 -19
-7 -66 26 -51 36 6 4 16 -2 22 -13 6 -11 17 -18 24 -15 8 3 24 -4 35 -15 12
-12 21 -16 21 -11 0 6 5 10 10 10 6 0 9 -6 8 -12 -2 -7 3 -12 10 -10 8 1 11
-2 7 -8 -3 -5 -1 -10 5 -10 6 0 8 -4 5 -10 -3 -6 -1 -10 4 -10 6 0 11 5 11 10
0 6 5 10 12 10 9 0 9 -3 0 -12 -16 -16 -16 -33 1 -20 7 5 21 6 32 1 21 -8 21
-8 -32 -13 -10 -1 -27 -7 -38 -13 -24 -12 -257 -80 -300 -87 -57 -9 -130 -17
-190 -21 -33 -3 -73 -7 -90 -9 -119 -18 -222 -24 -405 -24 -256 -1 -383 8
-424 30 -12 6 -21 10 -21 9 0 -7 -87 15 -142 35 -35 13 -63 22 -63 19 0 -2
-19 3 -42 11 -46 17 -57 19 -110 28 -20 3 -47 10 -62 15 -14 6 -26 8 -26 5 0
-3 -6 -2 -12 3 -7 4 -16 8 -20 9 -5 1 -9 2 -10 3 -2 2 -14 4 -28 7 -14 2 -32
7 -40 11 -8 3 -17 7 -20 8 -3 1 -22 9 -42 17 -21 9 -50 19 -66 21 -16 3 -39
10 -51 16 -11 7 -21 9 -21 6 0 -3 -11 2 -25 11 -14 9 -25 13 -25 9 0 -4 -6 -3
-12 3 -7 5 -29 13 -48 17 -19 4 -41 12 -47 17 -7 6 -13 7 -13 3 0 -5 -9 0 -20
10 -11 10 -20 15 -20 11 0 -6 -48 21 -60 34 -15 16 -135 90 -146 90 -7 0 -14
4 -16 8 -1 5 -25 24 -53 43 -97 67 -122 97 -150 185 -9 27 -19 56 -22 64 -3 8
-7 20 -9 25 -1 6 -10 37 -19 70 -16 58 -25 146 -27 267 0 54 9 81 55 163 66
116 257 318 359 380 35 21 72 46 83 55 11 9 45 32 75 50 73 43 99 73 106 120
4 22 10 40 14 40 4 0 54 -19 111 -43z m3032 -652 c-3 -9 -8 -14 -10 -11 -3 3
-2 9 2 15 9 16 15 13 8 -4z m-3836 -480 c0 -8 -4 -12 -9 -9 -5 3 -6 10 -3 15
9 13 12 11 12 -6z m-157 -314 c0 -11 -3 -11 -14 -1 -8 6 -12 18 -9 27 5 12 7
12 14 1 5 -7 9 -19 9 -27z m3038 -118 c-6 -7 -8 -16 -5 -19 3 -3 12 3 19 15 7
12 16 21 21 21 4 0 5 -6 0 -12 -4 -7 -8 -17 -8 -23 0 -17 -35 -17 -41 -1 -3 9
-9 14 -13 12 -4 -3 -13 0 -21 6 -12 8 -12 9 2 4 10 -3 20 -2 22 3 3 4 12 8 20
8 12 0 13 -3 4 -14z m62 -55 c0 -5 4 -6 10 -3 6 4 7 -1 3 -12 -6 -16 -5 -16
10 -4 11 9 17 10 17 2 0 -6 3 -10 8 -10 26 4 34 -1 22 -16 -12 -14 -10 -15 13
-11 15 2 29 1 32 -4 3 -5 13 -6 22 -3 11 4 14 3 9 -6 -5 -7 -14 -10 -21 -7 -7
2 -18 -1 -24 -7 -6 -6 -11 -7 -11 -3 0 5 -8 2 -17 -5 -13 -10 -15 -10 -7 0 9
9 6 18 -13 37 -26 26 -38 31 -28 12 4 -7 -3 -2 -14 11 -12 13 -21 20 -21 16 0
-4 -7 -2 -15 5 -8 7 -12 16 -10 21 7 10 35 0 35 -13z m-156 -90 c-3 -5 -12 -4
-20 3 -7 6 -11 15 -8 21 3 5 12 4 20 -3 7 -6 11 -15 8 -21z m-2100 -275 c4 -5
11 -8 14 -9 4 0 21 -3 37 -7 17 -4 44 -9 60 -12 17 -2 51 -11 78 -19 26 -8 47
-12 47 -10 0 2 23 -5 50 -16 28 -11 50 -18 50 -15 0 2 12 0 28 -6 26 -10 43
-15 89 -25 12 -2 34 -9 48 -14 14 -5 25 -7 25 -4 0 2 14 -2 30 -11 17 -9 30
-13 30 -10 0 4 6 3 13 -2 6 -4 17 -8 22 -10 46 -10 59 -13 75 -18 10 -3 28 -8
39 -10 12 -3 31 -7 44 -10 12 -3 33 -8 47 -11 14 -2 60 -5 102 -4 l77 0 0 -75
c0 -74 -16 -131 -46 -163 -7 -7 -13 -18 -13 -23 0 -17 -74 -90 -125 -124 -27
-18 -63 -45 -79 -59 -16 -15 -49 -41 -73 -59 -24 -17 -60 -45 -81 -60 -20 -16
-53 -41 -72 -55 -65 -50 -263 -255 -310 -322 -14 -19 -29 -40 -35 -46 -5 -7
-19 -24 -30 -40 -11 -15 -30 -40 -42 -55 -13 -15 -23 -32 -23 -38 0 -6 -4 -11
-10 -11 -5 0 -10 -7 -10 -15 0 -8 -4 -15 -10 -15 -5 0 -10 -6 -10 -13 0 -33
-22 -34 -53 -2 -18 18 -43 38 -55 44 -47 25 -71 54 -93 115 -12 33 -35 79 -50
101 -22 33 -25 45 -16 60 5 11 14 23 19 26 4 3 11 24 14 48 8 55 -17 121 -56
151 -36 28 -37 37 -5 75 37 45 38 46 72 100 47 74 58 108 69 214 2 24 8 49 11
55 4 6 8 17 9 24 1 7 16 29 34 48 39 45 53 79 50 124 -2 50 -2 53 4 79 3 13
-1 50 -8 82 -11 46 -12 59 -2 59 7 0 16 -3 20 -7z m2389 -213 c40 -53 56 -72
179 -203 45 -49 53 -63 43 -72 -32 -24 -45 -108 -25 -160 9 -24 102 -122 158
-167 12 -10 19 -24 16 -32 -3 -8 3 -32 14 -55 19 -39 19 -40 1 -57 -23 -21
-37 -63 -44 -132 -3 -30 -12 -67 -21 -84 l-16 -31 -29 59 c-15 32 -45 80 -66
105 -21 26 -73 97 -116 158 -75 108 -153 184 -219 214 -16 6 -28 16 -28 20 0
5 -4 5 -10 2 -5 -3 -10 -2 -10 4 0 6 -12 14 -27 17 -30 7 -93 49 -106 71 -4 7
-13 13 -20 13 -7 0 -35 24 -63 53 -43 43 -55 64 -74 126 -21 72 -24 101 -16
151 2 14 5 28 5 33 1 4 12 7 24 7 24 0 278 67 352 93 l40 14 8 -46 c5 -30 23
-65 50 -101z"/>
<path d="M2095 3742 c-56 -12 -255 -147 -310 -210 -16 -19 -49 -54 -72 -79
-46 -49 -63 -107 -45 -153 11 -28 57 -79 72 -81 6 -1 14 -2 19 -3 5 0 12 -3
15 -7 9 -9 76 2 70 12 -3 5 2 6 10 3 8 -3 24 4 35 15 37 37 51 28 45 -30 -3
-37 -2 -49 7 -43 8 5 9 2 1 -11 -5 -10 -6 -26 -2 -34 5 -9 15 -38 24 -66 23
-75 76 -200 87 -203 5 -2 9 -9 9 -16 0 -28 116 -105 215 -143 92 -36 140 -36
191 -1 33 23 61 71 67 118 6 36 -10 94 -43 166 -17 35 -30 71 -30 80 0 25 -30
123 -40 129 -5 3 -7 11 -4 18 4 11 -2 51 -20 125 -3 13 -14 49 -25 80 -11 31
-25 77 -31 102 -6 25 -14 52 -17 60 -3 8 -8 24 -10 35 -7 45 -65 123 -93 126
-13 2 -29 6 -32 8 -6 5 -75 7 -93 3z"/>
<path d="M3680 3699 c0 -5 -6 -6 -14 -3 -7 3 -21 -2 -30 -11 -9 -9 -16 -13
-16 -8 0 19 -60 -64 -66 -92 -3 -16 -11 -36 -16 -42 -6 -7 -8 -13 -5 -13 3 0
2 -14 -3 -32 -5 -17 -12 -50 -15 -72 -4 -23 -11 -59 -17 -81 -6 -22 -13 -46
-14 -54 -8 -42 -27 -117 -33 -126 -3 -5 -7 -14 -8 -20 -1 -5 -7 -30 -13 -54
-6 -24 -8 -46 -5 -49 2 -3 0 -10 -5 -17 -5 -6 -11 -20 -13 -31 -1 -10 -5 -23
-8 -29 -3 -5 -5 -35 -5 -65 1 -40 5 -54 14 -52 8 1 11 -2 7 -8 -3 -6 -10 -8
-14 -5 -8 5 -4 -38 6 -65 4 -8 5 -19 4 -24 -1 -5 1 -16 5 -25 4 -9 8 -23 10
-31 8 -39 85 -65 171 -57 70 7 203 82 203 115 0 7 5 12 10 12 6 0 10 7 10 15
0 8 3 15 8 15 15 0 69 136 88 224 11 49 2 276 -12 297 -3 5 13 2 35 -6 44 -15
93 -11 132 12 28 17 59 70 59 101 0 10 5 23 11 29 22 22 -26 76 -101 116 -114
61 -135 73 -138 80 -2 4 -9 7 -17 7 -7 0 -18 6 -24 14 -22 26 -181 57 -181 35z"/>
<path d="M4238 2963 c-17 -4 -23 -16 -18 -38 1 -5 -2 -7 -6 -3 -9 10 -34 -10
-34 -28 0 -23 49 -66 79 -70 37 -4 81 34 81 71 0 43 -54 80 -102 68z"/>
<path d="M1610 2873 c-16 -19 -19 -32 -11 -48 3 -5 6 -16 7 -23 6 -36 96 -50
116 -19 23 35 0 88 -40 93 -10 1 -26 5 -37 8 -12 4 -26 -1 -35 -11z"/>
<path d="M4077 2769 c-19 -27 -10 -58 20 -72 28 -12 50 4 58 43 9 48 -50 70
-78 29z"/>
<path d="M1836 2718 c-13 -18 -14 -25 -3 -42 22 -32 54 -39 77 -16 34 34 21
70 -28 76 -23 3 -35 -2 -46 -18z"/>
<path d="M2090 2571 c0 -6 -7 -8 -15 -5 -8 4 -21 1 -29 -5 -7 -6 -16 -8 -20
-4 -4 4 -4 -1 0 -10 4 -12 2 -17 -7 -15 -7 2 -13 -2 -14 -9 0 -6 -3 -15 -7
-19 -11 -11 -10 -24 3 -24 5 0 7 5 3 12 -5 7 -3 8 6 3 9 -5 11 -4 6 4 -5 7 -2
10 6 9 7 -2 12 3 11 10 -2 6 2 12 8 12 5 0 8 4 5 9 -3 5 1 11 9 15 8 3 15 3
15 0 0 -10 -35 -59 -47 -67 -8 -5 -11 -12 -8 -18 4 -5 -2 -6 -11 -2 -11 4 -15
2 -11 -4 4 -6 0 -16 -8 -23 -19 -16 -19 -36 -1 -43 16 -6 129 87 118 97 -3 4
2 4 12 0 14 -5 17 -4 12 4 -4 7 -1 15 8 18 8 3 13 14 11 26 -4 17 -2 18 12 6
12 -9 15 -9 9 -1 -5 9 -2 11 8 7 9 -3 16 -2 16 3 0 5 -10 9 -22 10 -13 1 -35
4 -50 7 -16 4 -28 2 -28 -3z"/>
<path d="M3870 2561 c0 -5 6 -11 13 -14 20 -7 27 -7 26 1 -1 4 -5 6 -10 5 -5
-2 -9 2 -9 7 0 6 -4 10 -10 10 -5 0 -10 -4 -10 -9z"/>
<path d="M2186 2545 c-10 -8 -23 -12 -29 -8 -6 3 -7 1 -3 -6 4 -6 0 -14 -8
-17 -9 -3 -14 -10 -11 -14 3 -4 -11 -17 -29 -28 -24 -14 -34 -27 -33 -41 2
-27 9 -26 26 0 11 19 11 21 -4 16 -10 -4 -14 -3 -10 4 4 5 16 7 28 4 12 -2 17
-2 11 0 -11 5 45 75 59 75 4 0 -1 -9 -10 -19 -34 -38 -42 -49 -36 -55 3 -3 -2
-8 -11 -12 -9 -3 -13 -10 -10 -15 3 -5 -2 -12 -11 -15 -11 -5 -13 -10 -5 -19
14 -17 -1 -27 -20 -14 -13 7 -13 9 0 9 13 0 13 2 0 9 -8 6 -19 7 -25 3 -5 -3
-4 2 4 11 16 20 6 23 -13 4 -11 -11 -9 -17 10 -34 13 -12 24 -19 24 -17 0 2
14 -2 30 -11 17 -9 30 -13 30 -9 0 4 6 2 13 -2 18 -14 50 -11 55 5 3 9 -2 11
-17 6 -20 -6 -28 4 -14 19 13 13 12 38 -2 32 -9 -3 -12 0 -8 9 3 8 9 13 13 10
9 -5 25 24 21 39 -1 5 6 3 15 -5 16 -12 17 -12 12 3 -9 23 24 52 40 36 9 -9
12 -9 12 0 0 7 0 14 0 17 0 3 -2 4 -5 3 -2 -2 -10 4 -17 13 -19 24 -50 30 -72
14z m-20 -180 c-1 -22 -2 -23 -13 -9 -12 17 -9 34 7 34 4 0 7 -11 6 -25z m-31
-5 c3 -6 -1 -7 -9 -4 -18 7 -21 14 -7 14 6 0 13 -4 16 -10z"/>
<path d="M2304 2517 c-13 -15 -28 -50 -25 -60 0 -4 -5 -10 -13 -13 -8 -3 -12
-12 -10 -19 3 -7 0 -16 -5 -20 -10 -5 -41 -69 -41 -82 0 -2 5 -1 10 2 6 3 10
-1 10 -9 0 -20 14 -20 30 -1 7 8 15 13 19 10 4 -2 19 2 34 10 14 7 27 11 29 9
2 -2 4 8 4 22 0 13 -5 23 -10 21 -6 -2 -10 -11 -8 -20 1 -8 -2 -18 -8 -22 -5
-3 -10 0 -10 7 -1 8 -7 5 -16 -7 -15 -19 -15 -19 -10 9 3 15 13 34 23 42 10 7
14 14 9 14 -5 0 -1 9 8 19 10 11 25 17 34 14 14 -4 14 -3 3 5 -8 6 -12 19 -8
32 11 43 -22 68 -49 37z"/>
<path d="M2242 2488 c-8 -8 -9 -15 -1 -25 8 -9 8 -13 0 -13 -23 0 -26 -2 -36
-18 -14 -25 -15 -42 -2 -42 6 0 3 -6 -7 -13 -16 -12 -16 -13 3 -13 12 0 21 6
21 12 0 6 7 17 15 24 9 7 14 19 11 27 -3 8 0 16 7 19 14 5 20 41 8 48 -4 3
-13 0 -19 -6z m-27 -68 c-3 -5 -1 -10 4 -10 6 0 11 5 11 12 0 6 3 8 6 5 4 -4
1 -14 -6 -22 -10 -12 -15 -13 -21 -3 -7 12 -3 28 7 28 3 0 2 -4 -1 -10z"/>
<path d="M3695 2460 c3 -5 8 -10 11 -10 2 0 4 5 4 10 0 6 -5 10 -11 10 -5 0
-7 -4 -4 -10z"/>
<path d="M2330 2424 c-7 -8 -9 -14 -4 -14 4 0 -2 -10 -14 -23 -17 -18 -19 -24
-8 -24 8 0 13 3 11 7 -3 4 4 15 15 25 11 10 17 22 13 28 -3 5 -2 7 4 4 6 -4 9
-18 8 -32 -2 -14 0 -25 4 -25 5 0 8 13 9 29 1 33 -20 47 -38 25z"/>
<path d="M3754 2418 c3 -10 1 -20 -4 -23 -6 -4 -10 -12 -10 -18 0 -8 3 -8 9 1
4 8 11 13 15 13 11 -2 10 3 -3 24 -9 14 -11 15 -7 3z"/>
<path d="M3896 2428 c3 -5 10 -6 15 -3 13 9 11 12 -6 12 -8 0 -12 -4 -9 -9z"/>
</g>
</svg>
